<svg width="80" height="80" viewBox="0 0 80 80" fill="none" xmlns="http://www.w3.org/2000/svg">
<mask id="mask0_2346_3933" style="mask-type:alpha" maskUnits="userSpaceOnUse" x="0" y="0" width="80" height="80">
<rect width="80" height="80" fill="#D9D9D9"/>
</mask>
<g mask="url(#mask0_2346_3933)">
<path d="M67.2697 14.3992C67.2697 14.3992 65.3101 18.2056 61.5884 20.5521C61.7007 20.2252 65.8533 7.87468 54.006 0C54.006 0 54.5941 8.28442 42.7827 9.25392L47.6043 4.6236C47.6043 4.6236 27.8176 1.82257 21.1488 18.7631C21.1488 18.7631 16.4462 18.9624 13.1758 22.6724L14.4866 23.5188C14.4866 23.5188 8.34527 26.3892 14.352 43.782C14.352 43.782 8.93337 54.1443 19.903 58.2462C20.0422 58.2977 20.0938 60.174 20.1275 60.3957C20.6482 64.5491 21.6067 68.7047 24.1678 72.108C27.0859 75.9883 31.4495 78.3773 36.1251 79.4521C38.8838 80.0902 41.8467 80.2738 44.5829 79.4409C50.3068 77.7011 53.593 71.7588 55.3708 66.4545C56.7714 62.2765 57.7029 57.9887 58.8432 53.739C58.8421 53.7339 58.8421 53.7285 58.8432 53.7234C59.0206 53.3629 59.0228 52.7807 59.0969 52.3799C59.2105 51.6668 59.3603 50.9598 59.5458 50.2618C59.7703 49.5117 59.6558 48.8333 60.0351 48.1034C60.5873 47.0466 60.823 45.7457 60.933 44.5411C61.0161 43.6164 61.0385 42.6916 61.0318 41.7669C61.0318 41.2094 61.0093 40.6474 60.9824 40.0832C60.9824 39.8839 60.7579 38.2225 60.8589 38.1733C64.0778 36.4783 70.8387 30.8404 67.2697 14.3992ZM59.2562 44.0485C59.1799 44.4784 59.0946 44.906 59.0093 45.3337C58.7332 46.7309 58.4706 48.1347 58.2417 49.5408C57.6369 53.3085 56.678 57.011 55.3775 60.5994C54.9488 61.9652 54.4392 63.3109 53.923 64.6476C53.0992 66.7716 52.1402 68.8409 51.052 70.843C50.2754 72.267 49.4538 73.6888 48.3585 74.8912C46.886 76.4854 44.8164 77.4728 42.6952 77.8758C40.3181 78.3236 38.1588 77.8534 35.9051 77.0854C32.913 76.0599 29.8446 74.7703 27.5775 72.4596C25.875 70.6783 24.5464 68.5758 23.6695 66.2754C22.5369 63.2945 22.1038 60.0944 22.4035 56.9207C22.4035 56.9207 17.995 57.4581 16.0355 54.1801C14.0759 50.9022 12.4328 45.0538 18.0242 42.9849L17.8132 43.023L18.0511 42.9738L18.0242 42.9849C20.6101 42.47 24.0242 41.9169 26.39 41.9886C26.39 41.9886 27.8895 38.4711 27.7368 31.8928C27.7368 31.8928 34.2463 28.4044 40.5718 30.5494C46.8972 32.6944 49.4538 35.3678 58.9263 33.4131C59.1107 34.1819 59.2494 34.961 59.3415 35.7462C59.419 36.5393 59.4505 37.3362 59.4358 38.133C59.4583 40.1459 59.6154 42.058 59.2562 44.0485Z" fill="#090909"/>
<path d="M48.9825 60.2881L48.1116 58.7544L48.0847 58.8484L48.0667 58.9044C48.0218 59.0365 47.9679 59.1574 47.95 59.2246C47.76 59.7059 47.4898 60.1518 47.1509 60.5434C46.846 60.9412 46.4606 61.2707 46.0198 61.5102C45.5789 61.7498 45.0924 61.8941 44.592 61.9338C43.459 62.0404 42.3164 61.9709 41.2048 61.7278C40.601 61.589 39.1846 60.9464 39.0522 62.0323C39.0381 62.185 39.0687 62.3384 39.1405 62.474C39.2122 62.6095 39.3219 62.7214 39.4562 62.7958C39.6996 62.951 39.9584 63.0808 40.2284 63.1832C42.1655 64.0318 44.464 64.1303 46.3249 63.0354C46.829 62.7302 47.2927 62.3631 47.7053 61.9428C47.9427 61.7022 48.1675 61.4496 48.3787 61.186C48.491 61.0404 48.6032 60.8971 48.702 60.7382C48.7513 60.662 49.0117 60.3732 48.996 60.2904L48.9825 60.2881Z" fill="#090909"/>
<path d="M18.0426 42.9736L18.0157 42.9849L17.8047 43.023L18.0426 42.9736Z" fill="#090909"/>
<path d="M18.0426 42.9736L18.0157 42.9849L17.8047 43.023L18.0426 42.9736Z" fill="#090909"/>
<path d="M30.9874 48.9563C31.7618 48.363 32.6776 48.3227 33.5463 48.3764C34.2919 48.4225 35.031 48.5425 35.7528 48.7347C36.3925 48.9048 37.0995 49.0146 37.6854 49.4422C37.7399 49.4837 37.7856 49.5355 37.8199 49.5947C37.8542 49.6539 37.8764 49.7192 37.8852 49.787C37.8939 49.9247 37.866 50.0621 37.8044 50.1856C37.4924 50.8953 36.8728 51.3499 36.3364 51.7014C35.7367 52.0928 35.0629 52.3573 34.3566 52.4783C33.7831 52.5776 33.1935 52.5258 32.6462 52.3283C32.3282 52.211 32.0265 52.0537 31.7483 51.8604C31.6226 51.773 30.8886 51.3029 30.8886 51.1148C30.3521 50.5371 30.3858 49.4176 30.9874 48.9563Z" fill="#090909"/>
<path d="M50.2975 51.0052C50.3181 50.8905 50.3785 50.7866 50.4681 50.7118C50.6018 50.6283 50.7626 50.5995 50.917 50.6312C51.0742 50.6492 51.229 50.676 51.3862 50.7006C51.7655 50.7633 52.1471 50.8216 52.5287 50.8775C52.9103 50.9335 53.2649 51.0052 53.6308 51.0813C54.0438 51.1686 54.4569 51.2671 54.8631 51.3925C55.1814 51.483 55.4914 51.5998 55.7902 51.7418C56.0014 51.8351 56.195 51.9638 56.3626 52.1224C56.4506 52.2065 56.5162 52.3112 56.5534 52.4269C56.5708 52.507 56.5712 52.5898 56.5545 52.67C56.5379 52.7502 56.5046 52.8261 56.4568 52.8927C56.2902 53.1435 56.0832 53.3652 55.8441 53.5487C55.6312 53.7191 55.4001 53.8655 55.1549 53.9853C54.6448 54.2375 54.0891 54.3851 53.5208 54.4197C52.9418 54.4592 52.3612 54.3689 51.8216 54.1555C51.645 54.0836 51.4746 53.9975 51.3121 53.898C51.0363 53.7056 50.8028 53.459 50.626 53.1733C50.4492 52.8876 50.3328 52.5688 50.284 52.2366C50.21 51.8581 50.21 51.4688 50.284 51.0902L50.2975 51.0052Z" fill="#090909"/>
<path d="M48.9825 60.2881L48.1116 58.7544L48.0847 58.8484L48.0667 58.9044C48.0218 59.0365 47.9679 59.1574 47.95 59.2246C47.76 59.7059 47.4898 60.1518 47.1509 60.5434C46.846 60.9412 46.4606 61.2707 46.0198 61.5102C45.5789 61.7498 45.0924 61.8941 44.592 61.9338C43.459 62.0404 42.3164 61.9709 41.2048 61.7278C40.601 61.589 39.1846 60.9464 39.0522 62.0323C39.0381 62.185 39.0687 62.3384 39.1405 62.474C39.2122 62.6095 39.3219 62.7214 39.4562 62.7958C39.6996 62.951 39.9584 63.0808 40.2284 63.1832C42.1655 64.0318 44.464 64.1303 46.3249 63.0354C46.829 62.7302 47.2927 62.3631 47.7053 61.9428C47.9427 61.7022 48.1675 61.4496 48.3787 61.186C48.491 61.0404 48.6032 60.8971 48.702 60.7382C48.7513 60.662 49.0117 60.3732 48.996 60.2904L48.9825 60.2881Z" fill="#090909"/>
<path d="M18.0426 42.9736L18.0157 42.9849L17.8047 43.023L18.0426 42.9736Z" fill="#090909"/>
<path d="M18.0426 42.9736L18.0157 42.9849L17.8047 43.023L18.0426 42.9736Z" fill="#090909"/>
<path d="M30.9874 48.9563C31.7618 48.363 32.6776 48.3227 33.5463 48.3764C34.2919 48.4225 35.031 48.5425 35.7528 48.7347C36.3925 48.9048 37.0995 49.0146 37.6854 49.4422C37.7399 49.4837 37.7856 49.5355 37.8199 49.5947C37.8542 49.6539 37.8764 49.7192 37.8852 49.787C37.8939 49.9247 37.866 50.0621 37.8044 50.1856C37.4924 50.8953 36.8728 51.3499 36.3364 51.7014C35.7367 52.0928 35.0629 52.3573 34.3566 52.4783C33.7831 52.5776 33.1935 52.5258 32.6462 52.3283C32.3282 52.211 32.0265 52.0537 31.7483 51.8604C31.6226 51.773 30.8886 51.3029 30.8886 51.1148C30.3521 50.5371 30.3858 49.4176 30.9874 48.9563Z" fill="#090909"/>
<path d="M50.2975 51.0052C50.3181 50.8905 50.3785 50.7866 50.4681 50.7118C50.6018 50.6283 50.7626 50.5995 50.917 50.6312C51.0742 50.6492 51.229 50.676 51.3862 50.7006C51.7655 50.7633 52.1471 50.8216 52.5287 50.8775C52.9103 50.9335 53.2649 51.0052 53.6308 51.0813C54.0438 51.1686 54.4569 51.2671 54.8631 51.3925C55.1814 51.483 55.4914 51.5998 55.7902 51.7418C56.0014 51.8351 56.195 51.9638 56.3626 52.1224C56.4506 52.2065 56.5162 52.3112 56.5534 52.4269C56.5708 52.507 56.5712 52.5898 56.5545 52.67C56.5379 52.7502 56.5046 52.8261 56.4568 52.8927C56.2902 53.1435 56.0832 53.3652 55.8441 53.5487C55.6312 53.7191 55.4001 53.8655 55.1549 53.9853C54.6448 54.2375 54.0891 54.3851 53.5208 54.4197C52.9418 54.4592 52.3612 54.3689 51.8216 54.1555C51.645 54.0836 51.4746 53.9975 51.3121 53.898C51.0363 53.7056 50.8028 53.459 50.626 53.1733C50.4492 52.8876 50.3328 52.5688 50.284 52.2366C50.21 51.8581 50.21 51.4688 50.284 51.0902L50.2975 51.0052Z" fill="#090909"/>
<path d="M65.9823 49.0035C65.7755 48.8291 65.5565 48.6698 65.3269 48.5266C64.9482 48.2849 64.5529 48.0702 64.144 47.884C63.571 47.6223 62.9817 47.3979 62.3797 47.2123C61.5855 46.9646 60.7766 46.7664 59.9577 46.6189C58.9185 46.4318 57.8692 46.3062 56.8152 46.2428C55.5058 46.1633 54.1933 46.1498 52.8825 46.2025C52.1238 46.236 51.3629 46.2875 50.602 46.3525C50.1957 46.3928 49.7849 46.4308 49.3809 46.4801C49.1774 46.5205 48.971 46.5445 48.7636 46.5517H48.7591C48.5782 46.5038 48.4029 46.437 48.2361 46.3525C46.8332 45.833 45.0936 45.5554 43.684 46.2428L43.4595 46.3592C43.4415 46.3592 42.216 45.383 42.1329 45.3292C40.8269 44.5116 39.4093 43.8865 37.9242 43.4731C35.522 42.8131 33.0303 42.5365 30.5415 42.6536C28.5506 42.7611 26.5701 43.0125 24.6156 43.4059C22.8199 43.7328 20.9075 43.9276 19.1925 44.6195C18.5813 44.8604 17.9999 45.1707 17.4597 45.5442C16.3508 46.3189 15.6999 47.3779 15.6639 48.7281C15.6046 49.7472 15.7733 50.7667 16.1578 51.7127C16.3241 52.1098 16.5688 52.4694 16.8773 52.7702C17.1858 53.071 17.5518 53.3068 17.9535 53.4636C17.9969 53.4802 18.0438 53.4859 18.0899 53.4801C18.136 53.4743 18.18 53.4572 18.218 53.4305C18.2559 53.4037 18.2867 53.368 18.3075 53.3265C18.3283 53.285 18.3386 53.2391 18.3373 53.1927C18.2745 52.1851 18.3867 49.5767 21.0578 49.0102C21.1202 48.9989 21.1768 48.9666 21.2183 48.9188C21.2599 48.8711 21.2838 48.8106 21.2861 48.7474C21.2885 48.6842 21.2691 48.6221 21.2313 48.5713C21.1935 48.5206 21.1394 48.4843 21.078 48.4684C19.7739 48.1303 17.6639 48.0855 16.5775 50.8216C16.5775 50.8216 15.9872 48.0205 17.7537 47.3667C18.2318 47.2055 18.7144 47.0443 19.1925 46.8786L21.5562 46.0815C22.4001 45.7994 23.2823 45.4098 24.1981 45.5509C24.5535 45.6006 24.8828 45.7649 25.1357 46.0188C25.3886 46.2727 25.5513 46.6022 25.5988 46.957C25.6493 47.2422 25.6674 47.5321 25.6527 47.8213C25.6527 47.8213 24.0208 61.2443 36.0409 60.6576C36.225 60.6465 36.4068 60.6576 36.5908 60.6576C37.0609 60.633 37.5285 60.5723 37.9893 60.4763C38.6366 60.3392 39.2662 60.1288 39.8658 59.8494C40.5915 59.5182 41.2592 59.0729 41.8433 58.5306C42.539 57.8833 43.1122 57.1166 43.5358 56.2669C44.0714 55.1744 44.4218 54.0009 44.5728 52.7942C44.6245 52.4561 44.6581 52.1224 44.6851 51.7754C44.7187 51.3276 44.6581 50.8462 44.8287 50.4185C44.8789 50.2895 44.958 50.1737 45.0599 50.0798C45.1618 49.9859 45.2839 49.9164 45.4168 49.8767C45.8007 49.7715 46.272 49.9707 46.5616 50.2081C46.6854 50.3296 46.7778 50.4793 46.831 50.6442C46.8841 50.8091 46.8965 50.9845 46.8669 51.1552C46.8332 51.5873 46.7838 52.0127 46.7838 52.4449C46.7816 53.0998 46.8131 53.7545 46.8781 54.4063C46.9541 55.176 47.0891 55.9387 47.2821 56.6878C47.4134 57.2012 47.5807 57.7047 47.7827 58.1947L48.9813 60.2972C49.1874 60.5658 49.4124 60.8195 49.6547 61.0562C50.313 61.7011 51.0876 62.2161 51.9375 62.5743C52.9652 62.9843 54.0569 63.2116 55.1631 63.246C55.6442 63.2654 56.1259 63.2602 56.6064 63.2303C56.8937 63.2124 57.1766 63.181 57.4594 63.1698C57.8617 63.1576 58.2611 63.0975 58.6491 62.9907C58.9717 62.8862 59.2836 62.7513 59.5806 62.5877C59.9612 62.3762 60.3185 62.1256 60.6468 61.8399C61.0651 61.4776 61.4463 61.0749 61.7848 60.6375C62.2135 60.0818 62.5943 59.4908 62.9229 58.8709C63.3348 58.0853 63.6897 57.2712 63.9846 56.4348C64.3528 55.3834 64.6586 54.3113 64.9004 53.2241L65.0171 52.7091L66.1866 51.8269V49.1804C66.1866 49.1423 66.016 49.0259 65.9823 49.0035ZM40.7502 55.3064C40.3258 56.1699 39.6727 56.9014 38.8617 57.4215C38.0506 57.9416 37.1125 58.2307 36.1487 58.2574C33.2306 58.3514 30.968 57.3976 29.6526 54.9615C28.9792 53.7054 28.7548 52.315 28.7548 50.9022V45.5688C34.528 44.8165 39.2485 45.5688 42.3731 48.6049C42.1823 51.2134 41.6436 53.4547 40.7502 55.3064ZM56.6154 60.8927C52.4583 61.1972 50.1059 58.9493 49.5201 54.2473C49.2981 52.3796 49.5385 50.4861 50.2204 48.7326C55.4504 48.3094 60.1193 48.7549 61.7916 50.9492H60.5031C60.213 50.9817 59.9201 50.9817 59.63 50.9492C59.5491 50.9259 59.4761 50.881 59.419 50.8193L58.8488 53.7301C58.9476 53.5241 59.8634 51.697 62.3684 52.1963C61.9622 57.8812 60.0699 60.8435 56.6154 60.8927Z" fill="#0068FF"/>
<path d="M31.8764 64.9232L30.9785 65.5949C34.4218 71.3649 43.8606 73.2927 49.544 68.7453L48.8482 67.8272C46.0614 69.1329 42.94 69.5538 39.9057 69.0333C36.8713 68.5128 34.0703 67.0758 31.8809 64.9165L31.8764 64.9232Z" fill="#090909"/>
</g>
</svg>
