<svg width="412" height="167" viewBox="0 0 412 167" fill="none" xmlns="http://www.w3.org/2000/svg">
<path d="M98.2095 37.1097C98.2095 37.1097 94.7452 43.9823 88.1659 48.219C88.3643 47.6288 95.7055 25.3293 74.7612 11.1111C74.7612 11.1111 75.8009 26.0691 54.9201 27.8196L63.4438 19.4593C63.4438 19.4593 28.464 14.4018 16.6744 44.9889C16.6744 44.9889 8.36094 45.3487 2.57924 52.0474L4.89669 53.5756C4.89669 53.5756 -5.96037 58.7583 4.65859 90.162C4.65859 90.162 -4.9207 108.872 14.472 116.278C14.718 116.371 14.8093 119.759 14.8688 120.159C15.7895 127.658 17.4839 135.161 22.0116 141.306C27.1703 148.312 34.8846 152.626 43.1504 154.566C48.0273 155.718 53.2654 156.05 58.1026 154.546C70.8763 150.58 76.1422 135.262 79.6144 123.579C80.7731 119.678 81.5985 115.692 82.5628 111.738C83.4754 107.966 83.8881 104.085 84.9 100.325C85.6381 97.5723 86.5707 94.9081 86.9238 92.0661C87.1559 89.9481 87.2037 87.8133 87.0667 85.6867C87.031 84.959 86.2413 80.3908 86.8841 80.027C92.5666 76.9747 104.519 66.7952 98.2095 37.1097ZM84.0429 90.6431C83.908 91.4193 83.7572 92.1914 83.6064 92.9636C83.1183 95.4862 82.654 98.021 82.2493 100.56C81.1802 107.363 79.4849 114.048 77.1858 120.527C76.4279 122.993 75.5271 125.422 74.6144 127.836C73.1581 131.671 71.4628 135.407 69.539 139.022C68.166 141.593 66.7137 144.16 64.7772 146.331C62.174 149.21 58.5153 150.992 54.7653 151.72C50.563 152.529 46.7456 151.68 42.7615 150.293C37.4718 148.442 32.0473 146.113 28.0394 141.941C25.0297 138.725 22.6808 134.928 21.1307 130.775C19.1284 125.393 18.3628 119.615 18.8926 113.885C18.8926 113.885 11.099 114.855 7.63476 108.936C4.1705 103.018 1.26576 92.4582 11.1506 88.7228L10.7776 88.7915L11.1982 88.7026L11.1506 88.7228C15.722 87.793 21.7577 86.7944 25.9402 86.9238C25.9402 86.9238 28.591 80.5727 28.3211 68.6953C28.3211 68.6953 39.829 62.3967 51.0114 66.2697C62.1939 70.1426 66.7137 74.9695 83.4596 71.4403C83.7856 72.8285 84.0307 74.2351 84.1937 75.6528C84.3306 77.0848 84.3862 78.5237 84.3604 79.9623C84.4 83.5967 84.6778 87.0491 84.0429 90.6431Z" fill="#0A0A0A"/>
<path d="M65.8856 119.967L64.3459 117.197L64.2983 117.367L64.2665 117.468C64.1872 117.707 64.0919 117.925 64.0602 118.046C63.7242 118.915 63.2466 119.72 62.6475 120.427C62.1085 121.146 61.4272 121.741 60.6478 122.173C59.8685 122.606 59.0085 122.866 58.1237 122.938C56.1208 123.13 54.1008 123.005 52.1357 122.566C51.0682 122.315 48.5643 121.155 48.3302 123.116C48.3052 123.391 48.3594 123.668 48.4862 123.913C48.613 124.158 48.807 124.36 49.0444 124.494C49.4747 124.774 49.9322 125.009 50.4095 125.194C53.8341 126.726 57.8975 126.904 61.1872 124.927C62.0784 124.376 62.8983 123.713 63.6277 122.954C64.0473 122.52 64.4447 122.064 64.8181 121.588C65.0165 121.325 65.2149 121.066 65.3895 120.779C65.4769 120.642 65.9372 120.12 65.9094 119.971L65.8856 119.967Z" fill="#0A0A0A"/>
<path d="M11.1784 88.7019L11.1308 88.7217L10.7578 88.7892L11.1784 88.7019Z" fill="#0A0A0A"/>
<path d="M11.1784 88.7019L11.1308 88.7217L10.7578 88.7892L11.1784 88.7019Z" fill="#0A0A0A"/>
<path d="M34.0631 99.5036C35.4321 98.4323 37.0511 98.3595 38.5868 98.4565C39.9049 98.5397 41.2116 98.7564 42.4876 99.1034C43.6185 99.4106 44.8685 99.6087 45.9042 100.381C46.0006 100.456 46.0814 100.549 46.142 100.656C46.2026 100.763 46.2418 100.881 46.2574 101.003C46.2728 101.252 46.2235 101.5 46.1146 101.723C45.563 103.005 44.4677 103.825 43.5193 104.46C42.4592 105.167 41.268 105.644 40.0194 105.863C39.0055 106.042 37.9632 105.949 36.9956 105.592C36.4334 105.38 35.9 105.096 35.4083 104.747C35.1861 104.589 33.8885 103.74 33.8885 103.401C32.9401 102.358 32.9996 100.336 34.0631 99.5036Z" fill="#0A0A0A"/>
<path d="M11.1784 88.7019L11.1308 88.7217L10.7578 88.7892L11.1784 88.7019Z" fill="#0A0A0A"/>
<path d="M11.1784 88.7019L11.1308 88.7217L10.7578 88.7892L11.1784 88.7019Z" fill="#0A0A0A"/>
<path d="M68.6213 103.35C68.6567 103.148 68.7606 102.965 68.915 102.832C69.1406 102.685 69.4145 102.634 69.6768 102.691C69.9427 102.723 70.2086 102.768 70.4705 102.812C71.1133 102.921 71.7641 103.026 72.411 103.127C73.0578 103.229 73.6649 103.346 74.2879 103.483C74.9863 103.637 75.6887 103.815 76.3792 104.033C76.924 104.193 77.4549 104.399 77.9665 104.648C78.327 104.813 78.6571 105.04 78.9427 105.319C79.0919 105.468 79.2023 105.653 79.2641 105.856C79.291 105.995 79.2905 106.138 79.2626 106.277C79.2346 106.416 79.1798 106.548 79.1014 106.665C78.8182 107.105 78.4656 107.494 78.0577 107.817C77.6973 108.118 77.3046 108.377 76.8871 108.589C76.022 109.034 75.0767 109.294 74.1094 109.353C73.1243 109.422 72.1367 109.263 71.2205 108.888C70.92 108.761 70.6306 108.608 70.3554 108.431C69.8849 108.089 69.4872 107.653 69.1865 107.15C68.8857 106.647 68.6881 106.088 68.6054 105.505C68.4805 104.837 68.4805 104.151 68.6054 103.483C68.6015 103.447 68.6094 103.398 68.6213 103.35Z" fill="#0A0A0A"/>
<path d="M95.9313 99.5897C95.5656 99.2749 95.1784 98.9871 94.7725 98.7286C94.103 98.2923 93.4042 97.9046 92.6813 97.5683C91.6684 97.0958 90.6266 96.6907 89.5622 96.3555C88.1582 95.9083 86.7282 95.5505 85.2805 95.2842C83.4435 94.9464 81.5884 94.7196 79.725 94.605C77.4103 94.4616 75.0899 94.4373 72.7727 94.5323C71.4314 94.5929 70.0862 94.6859 68.741 94.8031C68.0227 94.8759 67.2965 94.9446 66.5823 95.0336C66.2225 95.1065 65.8576 95.1498 65.491 95.1629H65.4831C65.1633 95.0764 64.8534 94.9558 64.5585 94.8031C62.0783 93.8652 59.003 93.3639 56.5109 94.605L56.1141 94.8153C56.0824 94.8153 53.9157 93.0526 53.7689 92.9556C51.46 91.4794 48.954 90.3506 46.3285 89.6042C42.0818 88.4126 37.6768 87.9132 33.277 88.1246C29.7573 88.3186 26.2561 88.7726 22.8009 89.4829C19.6263 90.0732 16.2454 90.4249 13.2136 91.6741C12.133 92.1092 11.1051 92.6694 10.1502 93.3437C8.18986 94.7425 7.03908 96.6547 6.97559 99.0924C6.87073 100.932 7.16893 102.773 7.84859 104.481C8.14261 105.198 8.57518 105.848 9.12056 106.391C9.66593 106.934 10.313 107.36 11.0232 107.643C11.0999 107.673 11.1828 107.683 11.2643 107.672C11.3459 107.662 11.4236 107.631 11.4907 107.583C11.5578 107.534 11.6122 107.47 11.649 107.395C11.6858 107.32 11.7039 107.237 11.7017 107.154C11.5906 105.334 11.789 100.625 16.5112 99.6018C16.6215 99.5813 16.7216 99.5232 16.795 99.4369C16.8684 99.3506 16.9106 99.2414 16.9148 99.1273C16.919 99.0132 16.8848 98.901 16.8179 98.8094C16.751 98.7178 16.6554 98.6522 16.5469 98.6235C14.2414 98.013 10.5113 97.9322 8.59066 102.872C8.59066 102.872 7.54701 97.8149 10.67 96.6345C11.5152 96.3434 12.3684 96.0523 13.2136 95.7532L17.3922 94.314C18.8842 93.8046 20.4437 93.1012 22.0628 93.3558C22.691 93.4455 23.2732 93.7422 23.7203 94.2007C24.1674 94.6591 24.455 95.2541 24.5389 95.8947C24.6283 96.4095 24.6602 96.933 24.6342 97.4551C24.6342 97.4551 21.7493 121.691 42.9991 120.632C43.3245 120.612 43.6459 120.632 43.9713 120.632C44.8024 120.587 45.6289 120.478 46.4435 120.304C47.588 120.057 48.701 119.677 49.761 119.173C51.0439 118.575 52.2243 117.771 53.257 116.791C54.4867 115.623 55.5002 114.238 56.249 112.704C57.1958 110.732 57.8153 108.613 58.0823 106.434C58.1736 105.824 58.2331 105.221 58.2807 104.595C58.3403 103.786 58.2331 102.917 58.5347 102.145C58.6235 101.912 58.7633 101.703 58.9434 101.533C59.1236 101.363 59.3394 101.238 59.5744 101.166C60.2529 100.976 61.0863 101.336 61.5982 101.765C61.817 101.984 61.9804 102.254 62.0744 102.552C62.1684 102.85 62.1902 103.166 62.1379 103.475C62.0783 104.255 61.991 105.023 61.991 105.803C61.9872 106.986 62.0428 108.168 62.1577 109.345C62.292 110.734 62.5308 112.112 62.872 113.464C63.1041 114.391 63.3998 115.3 63.7569 116.185L65.8759 119.981C66.2402 120.466 66.6381 120.924 67.0664 121.352C68.2302 122.516 69.5994 123.446 71.1021 124.092C72.9188 124.833 74.8487 125.243 76.8044 125.305C77.6549 125.34 78.5065 125.331 79.356 125.277C79.8639 125.245 80.3639 125.188 80.8639 125.168C81.5751 125.146 82.2812 125.037 82.9671 124.844C83.5375 124.656 84.0889 124.412 84.6139 124.117C85.2867 123.735 85.9185 123.282 86.4988 122.766C87.2383 122.112 87.9122 121.385 88.5107 120.596C89.2686 119.592 89.9416 118.525 90.5226 117.406C91.2509 115.987 91.8781 114.517 92.3995 113.007C93.0504 111.109 93.591 109.173 94.0186 107.21L94.2249 106.28L96.2924 104.688V99.9091C96.2924 99.8403 95.9908 99.6301 95.9313 99.5897ZM51.3245 110.97C50.5741 112.529 49.4196 113.85 47.9858 114.789C46.552 115.728 44.8935 116.25 43.1896 116.298C38.0309 116.468 34.0309 114.746 31.7056 110.347C30.5151 108.079 30.1183 105.569 30.1183 103.018V93.3882C40.3245 92.0298 48.6697 93.3882 54.1935 98.8701C53.8562 103.58 52.9038 107.627 51.3245 110.97ZM79.3719 121.056C72.0227 121.606 67.864 117.547 66.8283 109.058C66.4359 105.685 66.861 102.267 68.0664 99.1005C77.3123 98.3364 85.5662 99.1409 88.5226 103.103H86.2448C85.7319 103.161 85.2141 103.161 84.7012 103.103C84.5582 103.061 84.4292 102.98 84.3282 102.868L83.3202 108.124C83.4948 107.752 85.1139 104.453 89.5424 105.355C88.8242 115.619 85.4789 120.967 79.3719 121.056Z" fill="#0068FF"/>
<path d="M35.6361 128.334L34.0488 129.546C40.1361 139.965 56.8225 143.445 66.87 135.235L65.6399 133.577C60.7132 135.934 55.195 136.695 49.8307 135.755C44.4665 134.815 39.5146 132.22 35.6441 128.322L35.6361 128.334Z" fill="black"/>
<path d="M132.689 71.5629C132.276 71.5629 132 71.2873 132 70.8739V24.0222C132 23.6089 132.276 23.3333 132.689 23.3333H141.789C142.134 23.3333 142.341 23.4711 142.548 23.8844L158.334 61.0902H158.472L174.259 23.8844C174.466 23.4711 174.673 23.3333 175.017 23.3333H184.117C184.531 23.3333 184.807 23.6089 184.807 24.0222V70.8739C184.807 71.2873 184.531 71.5629 184.117 71.5629H175.155C174.742 71.5629 174.466 71.2873 174.466 70.8739V44.2098H174.328L162.746 71.0117C162.54 71.4251 162.333 71.5629 161.988 71.5629H154.819C154.474 71.5629 154.267 71.4251 154.06 71.0117L142.479 44.2098H142.341V70.8739C142.341 71.2873 142.065 71.5629 141.651 71.5629H132.689Z" fill="#0068FF"/>
<path d="M193.009 71.5629C192.595 71.5629 192.388 71.2873 192.388 70.9428V24.0222C192.388 23.6089 192.595 23.3333 193.009 23.3333H219.412C226.857 23.3333 232.993 28.7074 232.993 37.5955C232.993 45.9323 228.581 50.6864 222.652 51.9266L233.407 70.7361C233.682 71.2184 233.475 71.5629 232.924 71.5629H223.273C222.928 71.5629 222.583 71.3562 222.445 71.0806L211.691 52.2711H202.729V70.8739C202.729 71.2873 202.453 71.5629 202.04 71.5629H193.009ZM202.729 44.0031H214.173C218.585 44.0031 222.652 42.9696 222.652 37.8022C222.652 32.6347 218.585 31.6012 214.173 31.6012H202.729V44.0031Z" fill="#0068FF"/>
<path d="M245.282 72.2519C242.387 72.2519 240.112 69.9782 240.112 67.0844C240.112 64.1907 242.387 61.917 245.282 61.917C248.178 61.917 250.453 64.1907 250.453 67.0844C250.453 69.9782 248.178 72.2519 245.282 72.2519Z" fill="#0068FF"/>
<path d="M132 95.7926C132 95.3792 132.276 95.1036 132.689 95.1036H166.262C166.676 95.1036 166.952 95.3792 166.952 95.7926V102.683C166.952 103.096 166.676 103.372 166.262 103.372H142.341V115.084H164.194C164.608 115.084 164.884 115.36 164.884 115.773V122.663C164.884 123.077 164.608 123.352 164.194 123.352H142.341V142.644C142.341 143.058 142.065 143.333 141.651 143.333H132.689C132.276 143.333 132 143.058 132 142.644V95.7926Z" fill="#090909"/>
<path d="M171.331 143.333C170.917 143.333 170.71 143.058 170.71 142.713V95.7926C170.71 95.3792 170.917 95.1036 171.331 95.1036H197.734C205.18 95.1036 211.315 100.478 211.315 109.366C211.315 117.703 206.903 122.457 200.974 123.697L211.729 142.506C212.004 142.989 211.798 143.333 211.246 143.333H201.595C201.25 143.333 200.905 143.127 200.767 142.851L190.013 124.041H181.051V142.644C181.051 143.058 180.775 143.333 180.362 143.333H171.331ZM181.051 115.773H192.495C196.907 115.773 200.974 114.74 200.974 109.572C200.974 104.405 196.907 103.372 192.495 103.372H181.051V115.773Z" fill="#090909"/>
<path d="M240.287 103.647H240.15L232.98 123.972H247.457L240.287 103.647ZM215.056 142.575L232.98 95.6548C233.118 95.2414 233.463 95.1036 233.807 95.1036H246.699C247.043 95.1036 247.388 95.2414 247.526 95.6548L265.45 142.575C265.657 143.058 265.381 143.333 264.898 143.333H254.971C254.627 143.333 254.282 143.127 254.144 142.782L250.421 132.24H230.085L226.362 142.782C226.224 143.195 225.879 143.333 225.535 143.333H215.608C215.125 143.333 214.849 143.058 215.056 142.575Z" fill="#090909"/>
<path d="M270.027 143.333C269.614 143.333 269.338 143.058 269.338 142.644V95.7926C269.338 95.3792 269.614 95.1036 270.027 95.1036H279.127C279.472 95.1036 279.679 95.2414 279.885 95.6548L295.672 132.861H295.81L311.597 95.6548C311.804 95.2414 312.011 95.1036 312.355 95.1036H321.455C321.869 95.1036 322.145 95.3792 322.145 95.7926V142.644C322.145 143.058 321.869 143.333 321.455 143.333H312.493C312.08 143.333 311.804 143.058 311.804 142.644V115.98H311.666L300.084 142.782C299.877 143.195 299.671 143.333 299.326 143.333H292.156C291.812 143.333 291.605 143.195 291.398 142.782L279.816 115.98H279.679V142.644C279.679 143.058 279.403 143.333 278.989 143.333H270.027Z" fill="#090909"/>
<path d="M329.726 95.7926C329.726 95.3792 330.002 95.1036 330.415 95.1036H363.988C364.402 95.1036 364.678 95.3792 364.678 95.7926V102.683C364.678 103.096 364.402 103.372 363.988 103.372H340.067V115.084H361.92C362.334 115.084 362.61 115.36 362.61 115.773V122.663C362.61 123.077 362.334 123.352 361.92 123.352H340.067V135.065H363.988C364.402 135.065 364.678 135.341 364.678 135.754V142.644C364.678 143.058 364.402 143.333 363.988 143.333H330.415C330.002 143.333 329.726 143.058 329.726 142.644V95.7926Z" fill="#090909"/>
<path d="M371.481 143.333C371.067 143.333 370.86 143.058 370.86 142.713V95.7926C370.86 95.3792 371.067 95.1036 371.481 95.1036H397.884C405.329 95.1036 411.465 100.478 411.465 109.366C411.465 117.703 407.053 122.457 401.124 123.697L411.878 142.506C412.154 142.989 411.947 143.333 411.396 143.333H401.744C401.4 143.333 401.055 143.127 400.917 142.851L390.163 124.041H381.201V142.644C381.201 143.058 380.925 143.333 380.512 143.333H371.481ZM381.201 115.773H392.645C397.057 115.773 401.124 114.74 401.124 109.572C401.124 104.405 397.057 103.372 392.645 103.372H381.201V115.773Z" fill="#090909"/>
</svg>
