<svg width="156" height="48" viewBox="0 0 156 48" fill="none" xmlns="http://www.w3.org/2000/svg">
<g clip-path="url(#clip0_2487_3898)">
<rect width="48" height="48" rx="8" fill="white"/>
<path d="M35.5703 13.1197C35.5703 13.1197 34.7388 14.7374 33.1598 15.7346C33.2074 15.5957 34.9693 10.3467 29.9427 7C29.9427 7 30.1922 10.5209 25.1808 10.9329L27.2265 8.96503C27.2265 8.96503 18.8314 7.77459 16.0018 14.9743C16.0018 14.9743 14.0066 15.059 12.619 16.6358L13.1752 16.9955C13.1752 16.9955 10.5695 18.2154 13.1181 25.6074C13.1181 25.6074 10.819 30.0113 15.4733 31.7546C15.5323 31.7765 15.5542 32.5739 15.5685 32.6682C15.7895 34.4334 16.1961 36.1995 17.2828 37.6459C18.5209 39.295 20.3723 40.3104 22.3561 40.7671C23.5266 41.0383 24.7837 41.1164 25.9446 40.7624C29.0103 39.8289 30.2741 36.2233 31.1074 33.4732C31.3855 32.5549 31.5836 31.6167 31.8151 30.686C32.0341 29.7982 32.1332 28.8846 32.376 27.9997C32.5532 27.3516 32.777 26.7245 32.8617 26.0556C32.9174 25.557 32.9289 25.0545 32.896 24.554C32.8874 24.3827 32.6979 23.3074 32.8522 23.2217C34.216 22.5033 37.0845 20.1072 35.5703 13.1197ZM32.1703 25.7206C32.1379 25.9033 32.1017 26.0851 32.0655 26.2668C31.9484 26.8606 31.837 27.4573 31.7398 28.0549C31.4832 29.6561 31.0764 31.2297 30.5246 32.7548C30.3427 33.3352 30.1265 33.9071 29.9075 34.4752C29.5579 35.3779 29.1511 36.2574 28.6894 37.1083C28.3598 37.7135 28.0113 38.3177 27.5465 38.8287C26.9218 39.5063 26.0437 39.9259 25.1437 40.0972C24.1351 40.2875 23.2189 40.0877 22.2628 39.7613C20.9932 39.3255 19.6913 38.7774 18.7294 37.7953C18.0071 37.0383 17.4434 36.1447 17.0714 35.167C16.5908 33.9002 16.4071 32.5401 16.5342 31.1913C16.5342 31.1913 14.6638 31.4197 13.8323 30.0265C13.0009 28.6334 12.3038 26.1479 14.6761 25.2686L14.5866 25.2848L14.6876 25.2638L14.6761 25.2686C15.7733 25.0497 17.2218 24.8147 18.2256 24.8451C18.2256 24.8451 18.8618 23.3502 18.7971 20.5544C18.7971 20.5544 21.5589 19.0719 24.2427 19.9835C26.9265 20.8951 28.0113 22.0313 32.0303 21.2006C32.1085 21.5273 32.1674 21.8584 32.2065 22.1921C32.2393 22.5292 32.2527 22.8679 32.2465 23.2065C32.256 24.062 32.3227 24.8746 32.1703 25.7206Z" fill="#0A0A0A"/>
<path d="M27.8124 32.6228L27.4429 31.9709L27.4314 32.0109L27.4238 32.0347C27.4048 32.0908 27.3819 32.1422 27.3743 32.1708C27.2937 32.3753 27.179 32.5648 27.0352 32.7313C26.9059 32.9004 26.7424 33.0404 26.5553 33.1422C26.3683 33.244 26.1619 33.3053 25.9495 33.3222C25.4688 33.3675 24.984 33.3379 24.5124 33.2347C24.2562 33.1757 23.6553 32.9026 23.5991 33.3641C23.5931 33.4289 23.6061 33.4942 23.6365 33.5518C23.667 33.6094 23.7135 33.6569 23.7705 33.6886C23.8738 33.7545 23.9836 33.8097 24.0981 33.8532C24.92 34.2138 25.8953 34.2557 26.6848 33.7904C26.8987 33.6607 27.0954 33.5046 27.2705 33.326C27.3712 33.2238 27.4666 33.1164 27.5562 33.0044C27.6038 32.9425 27.6514 32.8816 27.6933 32.8141C27.7143 32.7817 27.8248 32.6589 27.8181 32.6237L27.8124 32.6228Z" fill="#0A0A0A"/>
<path d="M14.683 25.2637L14.6716 25.2684L14.582 25.2846L14.683 25.2637Z" fill="#0A0A0A"/>
<path d="M14.683 25.2637L14.6716 25.2684L14.582 25.2846L14.683 25.2637Z" fill="#0A0A0A"/>
<path d="M20.1753 27.8063C20.5039 27.5541 20.8924 27.537 21.261 27.5598C21.5773 27.5794 21.8909 27.6304 22.1972 27.7121C22.4686 27.7844 22.7686 27.831 23.0172 28.0128C23.0403 28.0304 23.0597 28.0524 23.0742 28.0776C23.0888 28.1027 23.0982 28.1305 23.1019 28.1593C23.1056 28.2178 23.0938 28.2763 23.0676 28.3287C22.9353 28.6304 22.6724 28.8236 22.4448 28.973C22.1904 29.1393 21.9045 29.2517 21.6048 29.3032C21.3615 29.3453 21.1113 29.3233 20.8791 29.2394C20.7442 29.1895 20.6162 29.1227 20.4981 29.0405C20.4448 29.0034 20.1334 28.8036 20.1334 28.7236C19.9058 28.4781 19.9201 28.0023 20.1753 27.8063Z" fill="#0A0A0A"/>
<path d="M14.683 25.2637L14.6716 25.2684L14.582 25.2846L14.683 25.2637Z" fill="#0A0A0A"/>
<path d="M14.683 25.2637L14.6716 25.2684L14.582 25.2846L14.683 25.2637Z" fill="#0A0A0A"/>
<path d="M28.4697 28.7115C28.4782 28.6639 28.5031 28.6208 28.5401 28.5897C28.5943 28.5549 28.66 28.543 28.723 28.5564C28.7868 28.564 28.8506 28.5745 28.9135 28.585C29.0678 28.6107 29.2239 28.6354 29.3792 28.6592C29.5344 28.683 29.6801 28.7106 29.8296 28.7429C29.9973 28.7791 30.1658 28.821 30.3316 28.8723C30.4623 28.91 30.5897 28.9584 30.7125 29.017C30.799 29.0559 30.8783 29.1093 30.9468 29.1749C30.9826 29.2101 31.0091 29.2536 31.0239 29.3015C31.0304 29.3342 31.0303 29.3679 31.0236 29.4006C31.0169 29.4333 31.0037 29.4643 30.9849 29.4918C30.9169 29.5954 30.8323 29.687 30.7344 29.763C30.6479 29.834 30.5536 29.8949 30.4535 29.9448C30.2458 30.0495 30.019 30.1107 29.7868 30.1246C29.5504 30.1409 29.3134 30.1035 29.0935 30.0152C29.0214 29.9853 28.9519 29.9493 28.8858 29.9077C28.7729 29.8271 28.6775 29.7245 28.6053 29.6061C28.5331 29.4877 28.4857 29.3559 28.4659 29.2187C28.4359 29.0615 28.4359 28.9001 28.4659 28.7429C28.4649 28.7344 28.4668 28.7229 28.4697 28.7115Z" fill="#0A0A0A"/>
<path d="M35.0242 27.8265C34.9365 27.7524 34.8435 27.6847 34.7461 27.6238C34.5854 27.5211 34.4177 27.4299 34.2442 27.3507C34.0011 27.2395 33.7511 27.1441 33.4956 27.0652C33.1587 26.96 32.8155 26.8758 32.468 26.8131C32.0271 26.7335 31.5819 26.6802 31.1347 26.6532C30.5792 26.6194 30.0223 26.6137 29.4662 26.6361C29.1442 26.6504 28.8214 26.6722 28.4985 26.6998C28.3262 26.717 28.1519 26.7331 27.9804 26.7541C27.8941 26.7712 27.8065 26.7814 27.7185 26.7845H27.7166C27.6399 26.7642 27.5655 26.7358 27.4947 26.6998C26.8995 26.4791 26.1614 26.3611 25.5633 26.6532L25.4681 26.7027C25.4605 26.7027 24.9405 26.2878 24.9052 26.265C24.3511 25.9175 23.7497 25.6518 23.1195 25.4761C22.1003 25.1956 21.0431 25.0781 19.9872 25.1278C19.1425 25.1735 18.3022 25.2803 17.4729 25.4475C16.711 25.5865 15.8996 25.6693 15.172 25.9633C14.9126 26.0657 14.6659 26.1976 14.4367 26.3563C13.9663 26.6856 13.6901 27.1357 13.6748 27.7095C13.6497 28.1426 13.7212 28.5759 13.8844 28.9779C13.9549 29.1467 14.0587 29.2995 14.1896 29.4274C14.3205 29.5552 14.4758 29.6554 14.6463 29.7221C14.6647 29.7291 14.6846 29.7315 14.7041 29.7291C14.7237 29.7266 14.7424 29.7194 14.7585 29.708C14.7746 29.6966 14.7876 29.6814 14.7965 29.6638C14.8053 29.6462 14.8096 29.6266 14.8091 29.6069C14.7825 29.1787 14.8301 28.0701 15.9634 27.8294C15.9899 27.8246 16.0139 27.8109 16.0315 27.7905C16.0491 27.7702 16.0593 27.7445 16.0603 27.7177C16.0613 27.6908 16.053 27.6644 16.037 27.6429C16.0209 27.6213 15.998 27.6059 15.972 27.5991C15.4186 27.4554 14.5234 27.4364 14.0625 28.5992C14.0625 28.5992 13.812 27.4088 14.5615 27.1309C14.7644 27.0624 14.9691 26.9939 15.172 26.9235L16.1748 26.5847C16.5329 26.4648 16.9072 26.2992 17.2958 26.3592C17.4465 26.3803 17.5863 26.4501 17.6936 26.558C17.8009 26.6659 17.8699 26.806 17.8901 26.9568C17.9115 27.078 17.9192 27.2012 17.9129 27.3241C17.9129 27.3241 17.2205 33.0289 22.3205 32.7795C22.3986 32.7748 22.4757 32.7795 22.5538 32.7795C22.7533 32.769 22.9516 32.7433 23.1472 32.7025C23.4218 32.6442 23.6889 32.5548 23.9433 32.436C24.2512 32.2953 24.5345 32.106 24.7824 31.8755C25.0775 31.6004 25.3208 31.2746 25.5005 30.9135C25.7277 30.4491 25.8764 29.9504 25.9405 29.4376C25.9624 29.2939 25.9767 29.1521 25.9881 29.0046C26.0024 28.8143 25.9767 28.6097 26.049 28.4279C26.0703 28.3731 26.1039 28.3238 26.1471 28.2839C26.1904 28.244 26.2422 28.2145 26.2986 28.1976C26.4614 28.1529 26.6614 28.2376 26.7843 28.3385C26.8368 28.3901 26.876 28.4537 26.8986 28.5238C26.9211 28.5939 26.9263 28.6684 26.9138 28.741C26.8995 28.9246 26.8786 29.1054 26.8786 29.2891C26.8776 29.5675 26.891 29.8457 26.9186 30.1227C26.9508 30.4498 27.0081 30.774 27.09 31.0924C27.1457 31.3105 27.2166 31.5245 27.3024 31.7328L27.8109 32.6263C27.8984 32.7405 27.9938 32.8483 28.0966 32.9489C28.376 33.223 28.7046 33.4419 29.0652 33.5941C29.5012 33.7684 29.9644 33.865 30.4338 33.8796C30.6379 33.8878 30.8423 33.8856 31.0461 33.8729C31.168 33.8653 31.288 33.852 31.408 33.8472C31.5787 33.842 31.7482 33.8165 31.9128 33.7711C32.0497 33.7267 32.182 33.6693 32.308 33.5998C32.4695 33.5099 32.6211 33.4034 32.7604 33.282C32.9379 33.128 33.0996 32.9569 33.2433 32.771C33.4252 32.5348 33.5867 32.2836 33.7261 32.0202C33.9009 31.6863 34.0515 31.3403 34.1766 30.9848C34.3328 30.538 34.4625 30.0823 34.5652 29.6203L34.6147 29.4014L35.1109 29.0265V27.9017C35.1109 27.8855 35.0385 27.836 35.0242 27.8265ZM24.3186 30.5052C24.1385 30.8723 23.8614 31.1831 23.5173 31.4042C23.1732 31.6252 22.7751 31.7481 22.3662 31.7594C21.1281 31.7994 20.1681 31.394 19.61 30.3587C19.3243 29.8249 19.2291 29.2339 19.2291 28.6335V26.3668C21.6786 26.047 23.6814 26.3668 25.0071 27.6571C24.9262 28.7657 24.6976 29.7183 24.3186 30.5052ZM31.0499 32.8795C29.2862 33.0089 28.2881 32.0535 28.0395 30.0551C27.9453 29.2614 28.0473 28.4566 28.3366 27.7114C30.5557 27.5315 32.5366 27.7209 33.2461 28.6534H32.6995C32.5764 28.6672 32.4521 28.6672 32.329 28.6534C32.2947 28.6435 32.2637 28.6245 32.2395 28.5983L31.9976 29.8353C32.0395 29.7478 32.428 28.9713 33.4909 29.1835C33.3185 31.5996 32.5157 32.8585 31.0499 32.8795Z" fill="#0068FF"/>
<path d="M20.5528 34.5925L20.1719 34.8779C21.6328 37.3302 25.6375 38.1495 28.049 36.2168L27.7537 35.8267C26.5713 36.3816 25.247 36.5605 23.9595 36.3392C22.6721 36.118 21.4837 35.5073 20.5547 34.5896L20.5528 34.5925Z" fill="black"/>
</g>
<path d="M57.56 20C57.416 20 57.32 19.904 57.32 19.76V3.44C57.32 3.296 57.416 3.2 57.56 3.2H60.728C60.848 3.2 60.92 3.248 60.992 3.392L66.488 16.352H66.536L72.032 3.392C72.104 3.248 72.176 3.2 72.296 3.2H75.464C75.608 3.2 75.704 3.296 75.704 3.44V19.76C75.704 19.904 75.608 20 75.464 20H72.344C72.2 20 72.104 19.904 72.104 19.76V10.472H72.056L68.024 19.808C67.952 19.952 67.88 20 67.76 20H65.264C65.144 20 65.072 19.952 65 19.808L60.968 10.472H60.92V19.76C60.92 19.904 60.824 20 60.68 20H57.56ZM78.5594 20C78.4154 20 78.3434 19.904 78.3434 19.784V3.44C78.3434 3.296 78.4154 3.2 78.5594 3.2H87.7514C90.3434 3.2 92.4794 5.072 92.4794 8.168C92.4794 11.072 90.9434 12.728 88.8794 13.16L92.6234 19.712C92.7194 19.88 92.6474 20 92.4554 20H89.0954C88.9754 20 88.8554 19.928 88.8074 19.832L85.0634 13.28H81.9434V19.76C81.9434 19.904 81.8474 20 81.7034 20H78.5594ZM81.9434 10.4H85.9274C87.4634 10.4 88.8794 10.04 88.8794 8.24C88.8794 6.44 87.4634 6.08 85.9274 6.08H81.9434V10.4ZM96.7578 20.24C95.7498 20.24 94.9578 19.448 94.9578 18.44C94.9578 17.432 95.7498 16.64 96.7578 16.64C97.7658 16.64 98.5578 17.432 98.5578 18.44C98.5578 19.448 97.7658 20.24 96.7578 20.24Z" fill="#0068FF"/>
<path d="M57.32 28.44C57.32 28.296 57.416 28.2 57.56 28.2H69.248C69.392 28.2 69.488 28.296 69.488 28.44V30.84C69.488 30.984 69.392 31.08 69.248 31.08H60.92V35.16H68.528C68.672 35.16 68.768 35.256 68.768 35.4V37.8C68.768 37.944 68.672 38.04 68.528 38.04H60.92V44.76C60.92 44.904 60.824 45 60.68 45H57.56C57.416 45 57.32 44.904 57.32 44.76V28.44ZM71.0126 45C70.8686 45 70.7966 44.904 70.7966 44.784V28.44C70.7966 28.296 70.8686 28.2 71.0126 28.2H80.2046C82.7966 28.2 84.9326 30.072 84.9326 33.168C84.9326 36.072 83.3966 37.728 81.3326 38.16L85.0766 44.712C85.1726 44.88 85.1006 45 84.9086 45H81.5486C81.4286 45 81.3086 44.928 81.2606 44.832L77.5166 38.28H74.3966V44.76C74.3966 44.904 74.3006 45 74.1566 45H71.0126ZM74.3966 35.4H78.3806C79.9166 35.4 81.3326 35.04 81.3326 33.24C81.3326 31.44 79.9166 31.08 78.3806 31.08H74.3966V35.4ZM95.0189 31.176H94.9709L92.4749 38.256H97.5149L95.0189 31.176ZM86.2349 44.736L92.4749 28.392C92.5229 28.248 92.6429 28.2 92.7629 28.2H97.2509C97.3709 28.2 97.4909 28.248 97.5389 28.392L103.779 44.736C103.851 44.904 103.755 45 103.587 45H100.131C100.011 45 99.8909 44.928 99.8429 44.808L98.5469 41.136H91.4669L90.1709 44.808C90.1229 44.952 90.0029 45 89.8829 45H86.4269C86.2589 45 86.1629 44.904 86.2349 44.736ZM105.373 45C105.229 45 105.133 44.904 105.133 44.76V28.44C105.133 28.296 105.229 28.2 105.373 28.2H108.541C108.661 28.2 108.733 28.248 108.805 28.392L114.301 41.352H114.349L119.845 28.392C119.917 28.248 119.989 28.2 120.109 28.2H123.277C123.421 28.2 123.517 28.296 123.517 28.44V44.76C123.517 44.904 123.421 45 123.277 45H120.157C120.013 45 119.917 44.904 119.917 44.76V35.472H119.869L115.837 44.808C115.765 44.952 115.693 45 115.573 45H113.077C112.957 45 112.885 44.952 112.813 44.808L108.781 35.472H108.733V44.76C108.733 44.904 108.637 45 108.493 45H105.373ZM126.156 28.44C126.156 28.296 126.252 28.2 126.396 28.2H138.084C138.228 28.2 138.324 28.296 138.324 28.44V30.84C138.324 30.984 138.228 31.08 138.084 31.08H129.756V35.16H137.364C137.508 35.16 137.604 35.256 137.604 35.4V37.8C137.604 37.944 137.508 38.04 137.364 38.04H129.756V42.12H138.084C138.228 42.12 138.324 42.216 138.324 42.36V44.76C138.324 44.904 138.228 45 138.084 45H126.396C126.252 45 126.156 44.904 126.156 44.76V28.44ZM140.692 45C140.548 45 140.476 44.904 140.476 44.784V28.44C140.476 28.296 140.548 28.2 140.692 28.2H149.884C152.476 28.2 154.612 30.072 154.612 33.168C154.612 36.072 153.076 37.728 151.012 38.16L154.756 44.712C154.852 44.88 154.78 45 154.588 45H151.228C151.108 45 150.988 44.928 150.94 44.832L147.196 38.28H144.076V44.76C144.076 44.904 143.98 45 143.836 45H140.692ZM144.076 35.4H148.06C149.596 35.4 151.012 35.04 151.012 33.24C151.012 31.44 149.596 31.08 148.06 31.08H144.076V35.4Z" fill="#090909"/>
<defs>
<clipPath id="clip0_2487_3898">
<rect width="48" height="48" rx="8" fill="white"/>
</clipPath>
</defs>
</svg>
