<svg width="158" height="60" viewBox="0 0 158 60" fill="none" xmlns="http://www.w3.org/2000/svg">
<path d="M47.3554 13.3595C47.3554 13.3595 46.1083 15.8336 43.7397 17.3589C43.8111 17.1464 46.454 9.11854 38.914 4C38.914 4 39.2883 9.38487 31.7712 10.015L34.8398 7.00534C34.8398 7.00534 22.247 5.18467 18.0028 16.196C18.0028 16.196 15.0099 16.3255 12.9285 18.7371L13.7628 19.2872C13.7628 19.2872 9.85427 21.153 13.6771 32.4583C13.6771 32.4583 10.2285 39.1938 17.2099 41.86C17.2985 41.8935 17.3314 43.1131 17.3528 43.2572C17.6842 45.9569 18.2942 48.6581 19.9242 50.8702C21.7813 53.3924 24.5584 54.9453 27.5341 55.6438C29.2898 56.0586 31.1755 56.178 32.9169 55.6366C37.5155 54.2089 39.4112 48.6944 40.6612 44.4884C41.0783 43.084 41.3755 41.649 41.7226 40.2256C42.0512 38.8678 42.1997 37.4706 42.564 36.1171C42.8297 35.126 43.1654 34.1669 43.2926 33.1438C43.3761 32.3813 43.3933 31.6128 43.344 30.8472C43.3312 30.5853 43.0469 28.9407 43.2783 28.8097C45.324 27.7109 49.6268 24.0463 47.3554 13.3595ZM42.2554 32.6315C42.2069 32.9109 42.1526 33.1889 42.0983 33.4669C41.9226 34.3751 41.7554 35.2876 41.6097 36.2015C41.2249 38.6505 40.6146 41.0572 39.7869 43.3896C39.514 44.2774 39.1898 45.1521 38.8612 46.0209C38.3369 47.4015 37.7266 48.7466 37.0341 50.0479C36.5398 50.9736 36.0169 51.8977 35.3198 52.6793C34.3826 53.7155 33.0655 54.3573 31.7155 54.6193C30.2027 54.9103 28.8284 54.6047 27.3941 54.1055C25.4899 53.439 23.537 52.6007 22.0942 51.0987C21.0107 49.9409 20.1651 48.5742 19.607 47.079C18.8862 45.1414 18.6106 43.0614 18.8013 40.9984C18.8013 40.9984 15.9956 41.3477 14.7485 39.2171C13.5014 37.0864 12.4557 33.285 16.0142 31.9402L15.8799 31.965L16.0314 31.9329L16.0142 31.9402C17.6599 31.6055 19.8328 31.246 21.3385 31.2926C21.3385 31.2926 22.2927 29.0062 22.1956 24.7303C22.1956 24.7303 26.3384 22.4628 30.3641 23.8571C34.3898 25.2513 36.0169 26.989 42.0454 25.7185C42.1628 26.2183 42.2511 26.7246 42.3097 27.235C42.359 27.7505 42.379 28.2685 42.3697 28.7864C42.384 30.0948 42.484 31.3377 42.2554 32.6315Z" fill="#0A0A0A"/>
<path d="M35.7186 43.1878L35.1643 42.1909L35.1471 42.252L35.1357 42.2884C35.1072 42.3743 35.0729 42.4529 35.0614 42.4965C34.9405 42.8094 34.7686 43.0992 34.5529 43.3538C34.3588 43.6124 34.1136 43.8265 33.833 43.9822C33.5524 44.1379 33.2428 44.2317 32.9243 44.2575C32.2033 44.3268 31.4761 44.2816 30.7686 44.1237C30.3843 44.0334 29.4829 43.6157 29.3986 44.3216C29.3896 44.4208 29.4091 44.5205 29.4548 44.6087C29.5005 44.6968 29.5703 44.7695 29.6558 44.8179C29.8107 44.9187 29.9753 45.0031 30.1472 45.0696C31.38 45.6212 32.8429 45.6853 34.0272 44.9736C34.348 44.7752 34.6431 44.5366 34.9057 44.2634C35.0568 44.107 35.1998 43.9428 35.3343 43.7714C35.4057 43.6769 35.4771 43.5837 35.54 43.4804C35.5714 43.4309 35.7371 43.2431 35.7271 43.1893L35.7186 43.1878Z" fill="#0A0A0A"/>
<path d="M16.0245 31.9326L16.0073 31.9398L15.873 31.964L16.0245 31.9326Z" fill="#0A0A0A"/>
<path d="M16.0245 31.9326L16.0073 31.9398L15.873 31.964L16.0245 31.9326Z" fill="#0A0A0A"/>
<path d="M24.2629 35.8213C24.7558 35.4356 25.3386 35.4094 25.8915 35.4444C26.366 35.4743 26.8364 35.5523 27.2958 35.6772C27.7029 35.7878 28.1529 35.8591 28.5258 36.1371C28.5604 36.1641 28.5895 36.1977 28.6114 36.2362C28.6332 36.2747 28.6473 36.3172 28.6529 36.3612C28.6584 36.4507 28.6407 36.5401 28.6015 36.6203C28.4029 37.0816 28.0086 37.3771 27.6672 37.6056C27.2856 37.86 26.8567 38.0319 26.4072 38.1106C26.0422 38.1751 25.667 38.1415 25.3186 38.0131C25.1163 37.9368 24.9242 37.8346 24.7472 37.7089C24.6672 37.6522 24.2001 37.3465 24.2001 37.2243C23.8587 36.8488 23.8801 36.1211 24.2629 35.8213Z" fill="#0A0A0A"/>
<path d="M16.0245 31.9326L16.0073 31.9398L15.873 31.964L16.0245 31.9326Z" fill="#0A0A0A"/>
<path d="M16.0245 31.9326L16.0073 31.9398L15.873 31.964L16.0245 31.9326Z" fill="#0A0A0A"/>
<path d="M36.7035 37.2059C36.7163 37.1331 36.7537 37.0672 36.8092 37.0196C36.8905 36.9664 36.9891 36.9481 37.0835 36.9687C37.1792 36.9803 37.2749 36.9963 37.3692 37.0124C37.6006 37.0516 37.8349 37.0895 38.0678 37.1259C38.3006 37.1623 38.5192 37.2045 38.7435 37.2539C38.9949 37.3093 39.2478 37.3733 39.4964 37.4519C39.6925 37.5095 39.8836 37.5834 40.0678 37.6731C40.1976 37.7327 40.3164 37.8144 40.4192 37.9147C40.4729 37.9684 40.5127 38.035 40.5349 38.1082C40.5446 38.1583 40.5444 38.2098 40.5344 38.2598C40.5243 38.3098 40.5046 38.3572 40.4763 38.3993C40.3744 38.5577 40.2474 38.6979 40.1006 38.8141C39.9709 38.9226 39.8295 39.0159 39.6792 39.0921C39.3678 39.2522 39.0275 39.3458 38.6792 39.3671C38.3246 39.392 37.9691 39.3348 37.6392 39.1998C37.5311 39.154 37.4269 39.099 37.3278 39.0353C37.1584 38.9121 37.0152 38.7552 36.907 38.5741C36.7987 38.3931 36.7275 38.1915 36.6978 37.9816C36.6528 37.7412 36.6528 37.4943 36.6978 37.2539C36.6964 37.2408 36.6992 37.2234 36.7035 37.2059Z" fill="#0A0A0A"/>
<path d="M46.5353 35.8524C46.4037 35.7391 46.2643 35.6355 46.1182 35.5424C45.8772 35.3854 45.6256 35.2458 45.3653 35.1247C45.0007 34.9546 44.6256 34.8088 44.2425 34.6881C43.737 34.5271 43.2222 34.3983 42.7011 34.3025C42.0397 34.1808 41.3719 34.0992 40.7011 34.058C39.8678 34.0063 39.0324 33.9976 38.1982 34.0318C37.7154 34.0536 37.2311 34.0871 36.7468 34.1293C36.4883 34.1555 36.2268 34.1802 35.9697 34.2122C35.8402 34.2385 35.7088 34.2541 35.5768 34.2588H35.574C35.4589 34.2277 35.3473 34.1842 35.2411 34.1293C34.3483 33.7916 33.2411 33.6112 32.344 34.058L32.2012 34.1336C32.1897 34.1336 31.4097 33.4991 31.3569 33.4642C30.5257 32.9327 29.6235 32.5264 28.6783 32.2577C27.1495 31.8287 25.5637 31.6489 23.9798 31.725C22.7127 31.7949 21.4523 31.9583 20.2084 32.214C19.0655 32.4265 17.8484 32.5531 16.757 33.0028C16.368 33.1594 15.9979 33.3611 15.6541 33.6039C14.9484 34.1074 14.5341 34.7958 14.5113 35.6734C14.4735 36.3358 14.5809 36.9985 14.8256 37.6134C14.9314 37.8715 15.0871 38.1053 15.2835 38.3008C15.4798 38.4963 15.7127 38.6496 15.9684 38.7515C15.9961 38.7623 16.0259 38.766 16.0552 38.7622C16.0846 38.7585 16.1126 38.7474 16.1367 38.73C16.1609 38.7126 16.1805 38.6893 16.1937 38.6624C16.207 38.6354 16.2135 38.6056 16.2127 38.5754C16.1727 37.9205 16.2441 36.225 17.9441 35.8568C17.9838 35.8494 18.0198 35.8285 18.0463 35.7974C18.0727 35.7664 18.0879 35.727 18.0894 35.686C18.0909 35.6449 18.0786 35.6045 18.0545 35.5715C18.0304 35.5386 17.996 35.5149 17.957 35.5046C17.127 35.2848 15.7841 35.2557 15.0927 37.0342C15.0927 37.0342 14.717 35.2135 15.8413 34.7886C16.1456 34.6838 16.4527 34.579 16.757 34.4713L18.2613 33.9532C18.7984 33.7698 19.3598 33.5166 19.9427 33.6083C20.1688 33.6405 20.3784 33.7473 20.5394 33.9124C20.7003 34.0774 20.8039 34.2916 20.8341 34.5222C20.8663 34.7076 20.8778 34.896 20.8684 35.084C20.8684 35.084 19.8298 43.8089 27.4798 43.4276C27.5969 43.4204 27.7126 43.4276 27.8298 43.4276C28.1289 43.4116 28.4265 43.3722 28.7198 43.3098C29.1318 43.2206 29.5324 43.0839 29.914 42.9023C30.3759 42.687 30.8008 42.3976 31.1726 42.045C31.6153 41.6243 31.9802 41.1259 32.2497 40.5737C32.5906 39.8635 32.8136 39.1008 32.9097 38.3164C32.9426 38.0966 32.964 37.8798 32.9811 37.6542C33.0026 37.3631 32.964 37.0502 33.0726 36.7722C33.1045 36.6884 33.1549 36.6131 33.2197 36.552C33.2846 36.491 33.3623 36.4458 33.4469 36.42C33.6911 36.3516 33.9911 36.4812 34.1754 36.6354C34.2542 36.7144 34.313 36.8117 34.3469 36.9189C34.3807 37.0261 34.3885 37.1401 34.3697 37.251C34.3483 37.5319 34.3169 37.8084 34.3169 38.0893C34.3155 38.5151 34.3355 38.9406 34.3768 39.3642C34.4252 39.8646 34.5112 40.3604 34.634 40.8473C34.7175 41.181 34.824 41.5082 34.9526 41.8267L35.7154 43.1933C35.8466 43.368 35.9898 43.5328 36.144 43.6867C36.5629 44.1059 37.0559 44.4407 37.5968 44.6734C38.2508 44.94 38.9456 45.0877 39.6497 45.1101C39.9558 45.1227 40.2624 45.1193 40.5682 45.0999C40.7511 45.0882 40.9311 45.0678 41.1111 45.0606C41.3671 45.0526 41.6213 45.0135 41.8682 44.9441C42.0736 44.8762 42.2721 44.7885 42.4611 44.6822C42.7033 44.5447 42.9307 44.3818 43.1396 44.1961C43.4059 43.9606 43.6485 43.6988 43.8639 43.4145C44.1368 43.0533 44.3791 42.6692 44.5882 42.2663C44.8504 41.7556 45.0762 41.2264 45.2639 40.6828C45.4982 39.9994 45.6928 39.3025 45.8468 38.5958L45.921 38.2611L46.6653 37.6877V35.9674C46.6653 35.9427 46.5568 35.867 46.5353 35.8524ZM30.4769 39.9493C30.2068 40.5106 29.7911 40.9861 29.275 41.3241C28.7588 41.6622 28.1617 41.8501 27.5483 41.8675C25.6912 41.9286 24.2512 41.3086 23.4141 39.7252C22.9855 38.9087 22.8427 38.0049 22.8427 37.0866V33.6199C26.5169 33.1309 29.5212 33.6199 31.5097 35.5934C31.3883 37.2889 31.0454 38.7457 30.4769 39.9493ZM40.5739 43.5805C37.9283 43.7784 36.4311 42.3172 36.0583 39.2609C35.917 38.0469 36.07 36.8161 36.504 35.6763C39.8325 35.4013 42.8039 35.6909 43.8682 37.1171H43.0482C42.8636 37.1382 42.6772 37.1382 42.4925 37.1171C42.441 37.102 42.3946 37.0728 42.3582 37.0327L41.9954 38.9247C42.0582 38.7908 42.6411 37.6032 44.2353 37.9278C43.9768 41.623 42.7725 43.5484 40.5739 43.5805Z" fill="#0068FF"/>
<path d="M24.8292 46.2002L24.2578 46.6368C26.4492 50.3873 32.4563 51.6403 36.0734 48.6845L35.6306 48.0878C33.857 48.9364 31.8704 49.2101 29.9393 48.8717C28.0082 48.5334 26.2255 47.5993 24.8321 46.1958L24.8292 46.2002Z" fill="black"/>
<path d="M60.2413 25.8804C60.0965 25.8804 60 25.7839 60 25.6392V9.24115C60 9.09646 60.0965 9 60.2413 9H63.4262C63.5469 9 63.6193 9.04823 63.6916 9.19292L69.217 22.2149H69.2653L74.7907 9.19292C74.8631 9.04823 74.9355 9 75.0561 9H78.2411C78.3858 9 78.4823 9.09646 78.4823 9.24115V25.6392C78.4823 25.7839 78.3858 25.8804 78.2411 25.8804H75.1044C74.9596 25.8804 74.8631 25.7839 74.8631 25.6392V16.3068H74.8148L70.7613 25.6875C70.6889 25.8322 70.6165 25.8804 70.4958 25.8804H67.9865C67.8659 25.8804 67.7935 25.8322 67.7211 25.6875L63.6675 16.3068H63.6193V25.6392C63.6193 25.7839 63.5227 25.8804 63.378 25.8804H60.2413Z" fill="#0068FF"/>
<path d="M81.353 25.8804C81.2083 25.8804 81.1359 25.7839 81.1359 25.6633V9.24115C81.1359 9.09646 81.2083 9 81.353 9H90.5942C93.2001 9 95.3475 10.881 95.3475 13.9918C95.3475 16.9097 93.8033 18.5736 91.7283 19.0077L95.4923 25.591C95.5888 25.7598 95.5164 25.8804 95.3234 25.8804H91.9454C91.8248 25.8804 91.7041 25.808 91.6559 25.7116L87.8918 19.1282H84.7551V25.6392C84.7551 25.7839 84.6586 25.8804 84.5139 25.8804H81.353ZM84.7551 16.2344H88.7605C90.3047 16.2344 91.7283 15.8727 91.7283 14.0641C91.7283 12.2555 90.3047 11.8938 88.7605 11.8938H84.7551V16.2344Z" fill="#0068FF"/>
<path d="M99.6488 26.1215C98.6354 26.1215 97.8391 25.3257 97.8391 24.3129C97.8391 23.3001 98.6354 22.5043 99.6488 22.5043C100.662 22.5043 101.458 23.3001 101.458 24.3129C101.458 25.3257 100.662 26.1215 99.6488 26.1215Z" fill="#0068FF"/>
<path d="M60 34.3608C60 34.2161 60.0965 34.1196 60.2413 34.1196H71.9918C72.1366 34.1196 72.2331 34.2161 72.2331 34.3608V36.7722C72.2331 36.9169 72.1366 37.0134 71.9918 37.0134H63.6193V41.1129H71.268C71.4127 41.1129 71.5092 41.2094 71.5092 41.3541V43.7655C71.5092 43.9102 71.4127 44.0067 71.268 44.0067H63.6193V50.7588C63.6193 50.9035 63.5227 51 63.378 51H60.2413C60.0965 51 60 50.9035 60 50.7588V34.3608Z" fill="#090909"/>
<path d="M73.7658 51C73.621 51 73.5486 50.9035 73.5486 50.783V34.3608C73.5486 34.2161 73.621 34.1196 73.7658 34.1196H83.007C85.6128 34.1196 87.7603 36.0006 87.7603 39.1114C87.7603 42.0293 86.216 43.6932 84.141 44.1273L87.905 50.7106C88.0015 50.8794 87.9292 51 87.7361 51H84.3582C84.2375 51 84.1169 50.9277 84.0686 50.8312L80.3046 44.2478H77.1679V50.7588C77.1679 50.9035 77.0714 51 76.9266 51H73.7658ZM77.1679 41.3541H81.1732C82.7174 41.3541 84.141 40.9923 84.141 39.1837C84.141 37.3751 82.7174 37.0134 81.1732 37.0134H77.1679V41.3541Z" fill="#090909"/>
<path d="M97.9006 37.1099H97.8523L95.343 44.2237H100.41L97.9006 37.1099ZM89.0696 50.7347L95.343 34.3125C95.3912 34.1678 95.5119 34.1196 95.6325 34.1196H100.145C100.265 34.1196 100.386 34.1678 100.434 34.3125L106.707 50.7347C106.78 50.9035 106.683 51 106.514 51H103.04C102.919 51 102.799 50.9277 102.75 50.8071L101.447 47.1175H94.3296L93.0267 50.8071C92.9784 50.9518 92.8578 51 92.7371 51H89.2626C89.0937 51 88.9972 50.9035 89.0696 50.7347Z" fill="#090909"/>
<path d="M108.31 51C108.165 51 108.068 50.9035 108.068 50.7588V34.3608C108.068 34.2161 108.165 34.1196 108.31 34.1196H111.494C111.615 34.1196 111.688 34.1678 111.76 34.3125L117.285 47.3345H117.334L122.859 34.3125C122.931 34.1678 123.004 34.1196 123.124 34.1196H126.309C126.454 34.1196 126.551 34.2161 126.551 34.3608V50.7588C126.551 50.9035 126.454 51 126.309 51H123.173C123.028 51 122.931 50.9035 122.931 50.7588V41.4264H122.883L118.83 50.8071C118.757 50.9518 118.685 51 118.564 51H116.055C115.934 51 115.862 50.9518 115.789 50.8071L111.736 41.4264H111.688V50.7588C111.688 50.9035 111.591 51 111.446 51H108.31Z" fill="#090909"/>
<path d="M129.204 34.3608C129.204 34.2161 129.301 34.1196 129.445 34.1196H141.196C141.341 34.1196 141.437 34.2161 141.437 34.3608V36.7722C141.437 36.9169 141.341 37.0134 141.196 37.0134H132.823V41.1129H140.472C140.617 41.1129 140.713 41.2094 140.713 41.3541V43.7655C140.713 43.9102 140.617 44.0067 140.472 44.0067H132.823V48.1062H141.196C141.341 48.1062 141.437 48.2027 141.437 48.3474V50.7588C141.437 50.9035 141.341 51 141.196 51H129.445C129.301 51 129.204 50.9035 129.204 50.7588V34.3608Z" fill="#090909"/>
<path d="M143.818 51C143.673 51 143.601 50.9035 143.601 50.783V34.3608C143.601 34.2161 143.673 34.1196 143.818 34.1196H153.059C155.665 34.1196 157.813 36.0006 157.813 39.1114C157.813 42.0293 156.268 43.6932 154.193 44.1273L157.957 50.7106C158.054 50.8794 157.982 51 157.789 51H154.411C154.29 51 154.169 50.9277 154.121 50.8312L150.357 44.2478H147.22V50.7588C147.22 50.9035 147.124 51 146.979 51H143.818ZM147.22 41.3541H151.226C152.77 41.3541 154.193 40.9923 154.193 39.1837C154.193 37.3751 152.77 37.0134 151.226 37.0134H147.22V41.3541Z" fill="#090909"/>
</svg>
